<svg width="376" height="330" viewBox="0 0 376 330" fill="none" xmlns="http://www.w3.org/2000/svg">
<path d="M157.786 304.506C157.786 287.703 171.407 274.082 188.21 274.082C205.013 274.082 218.634 287.703 218.634 304.506V327.828C218.634 329.028 219.607 330 220.806 330H372C374.209 330 376 328.209 376 326V4.00002C376 1.79088 374.209 0 372 0L220.814 0C219.61 0 218.634 0.975798 218.634 2.17951V25.6979C218.634 42.5008 205.013 56.1223 188.21 56.1223C171.407 56.1223 157.786 42.5008 157.786 25.6979V2.17953C157.786 0.975822 156.81 0 155.606 0H4C1.791 0 0 1.79088 0 4.00002V326C0 328.209 1.791 330 4 330H155.614C156.813 330 157.786 329.028 157.786 327.828V304.506Z" fill="currentColor"/>
</svg>

