<svg width="376" height="330" viewBox="0 0 376 330" fill="none" xmlns="http://www.w3.org/2000/svg">
<path d="M160.018 273.931C158.694 273.931 157.621 275.004 157.621 276.328V324C157.621 327.314 154.935 330 151.621 330L4.00017 330C1.79097 330 7.68908e-05 328.209 0.000171738 326L0.0139961 3.99982C0.0140909 1.79075 1.80492 0 4.014 0H156.04C157.236 0 158.206 0.969645 158.206 2.16576C158.206 31.7697 182.204 55.7684 211.808 55.7684H219.379V4C219.379 1.79086 221.17 0 223.379 0H372C374.209 0 376 1.79086 376 4V326C376 328.21 374.209 330 372 330L223.531 330C221.215 330 219.338 328.124 219.338 325.808C219.338 297.157 196.112 273.931 167.461 273.931H160.018Z" fill="currentColor"/>
</svg>

