<svg width="376" height="330" viewBox="0 0 376 330" fill="none" xmlns="http://www.w3.org/2000/svg">
<path d="M4 1.74846e-07L372 1.62606e-05C374.209 1.63572e-05 376 1.79088 376 4.00001L376 83.5069C376 83.8417 375.729 84.1131 375.394 84.1131L250.856 84.1131C236.026 84.1131 224.003 96.1353 224.003 110.965C224.003 125.796 236.026 137.818 250.856 137.818L374.792 137.818C375.459 137.818 376 138.358 376 139.025L376 193.413L376 245.226L376 326C376 328.209 374.209 330 372 330L3.99999 330C1.79085 330 -1.43465e-05 328.209 -1.42499e-05 326L-1.44248e-05 245.324C-1.44248e-05 244.996 0.267105 244.729 0.595898 244.73L123.434 245.14C137.775 245.187 149.425 233.575 149.425 219.235C149.425 204.961 137.878 193.376 123.604 193.33L0.5959 192.935C0.266476 192.934 -1.44048e-05 192.666 -1.43802e-05 192.337L-1.74846e-07 4C-7.8281e-08 1.79086 1.79086 7.8281e-08 4 1.74846e-07Z" fill="currentColor"/>
</svg>
