<svg width="376" height="330" viewBox="0 0 376 330" fill="none" xmlns="http://www.w3.org/2000/svg">
<path d="M4 0C1.79086 0 0 1.79086 0 4V137.245C0 137.744 0.403906 138.148 0.902344 138.148H199.412C214.242 138.148 226.264 150.17 226.264 165C226.264 179.83 214.242 191.852 199.412 191.852H71.1952C68.9861 191.852 67.1952 193.643 67.1952 195.852V326C67.1952 328.209 68.9861 330 71.1952 330H372C374.209 330 376 328.209 376 326V192.755C376 192.256 375.596 191.852 375.098 191.852H176.588C161.758 191.852 149.736 179.83 149.736 165C149.736 150.17 161.758 138.148 176.588 138.148H304.805C307.014 138.148 308.805 136.357 308.805 134.148V4C308.805 1.79086 307.014 0 304.805 0H4Z" fill="currentColor"/>
</svg>
