<svg width="376" height="330" viewBox="0 0 376 330" fill="none" xmlns="http://www.w3.org/2000/svg">
<path d="M71.1952 330C68.9861 330 67.1952 328.209 67.1952 326L67.1952 222.432L67.1952 202.304C67.1952 166.635 38.2792 137.719 2.60952 137.719C1.16833 137.719 -8.45595e-06 136.55 -8.51895e-06 135.109L-1.27832e-05 37.5535L0.10814 3.98714C0.115251 1.78304 1.90401 1.63523e-05 4.10811 1.62559e-05L157.786 9.53845e-06L218.634 6.87867e-06L371.992 1.75215e-07C374.204 7.85063e-08 375.996 1.79602 375.992 4.00842L375.879 57.2996L375.996 135.232C375.998 136.605 374.886 137.719 373.513 137.719C339.601 137.719 312.097 165.184 312.05 199.096L312.015 224.43L312.015 326C312.015 328.209 310.224 330 308.015 330L71.1952 330Z" fill="currentColor"/>
</svg>




