<svg width="376" height="330" viewBox="0 0 376 330" fill="none" xmlns="http://www.w3.org/2000/svg">
<path d="M71.2 330C68.99 330 67.2 328.209 67.2 326V222.432V202.304C67.2 166.635 38.28 137.719 2.61 137.719C1.17 137.719 0 136.55 0 135.109V37.5535L0.11 3.98712C0.12 1.78303 1.9 0 4.11 0H155.6C156.81 0 157.79 0.978188 157.79 2.18483V25.8348C157.79 42.6377 171.41 56.2592 188.21 56.2592C205.01 56.2592 218.63 42.6377 218.63 25.8348V2.18483C218.63 0.978187 219.61 0 220.82 0H371.99C374.2 0 376 1.79601 375.99 4.00844L375.88 57.2996L376 135.232C376 136.605 374.89 137.719 373.51 137.719C339.6 137.719 312.1 165.184 312.05 199.096L312.01 224.43V326C312.01 328.209 310.22 330 308.01 330H71.2Z" fill="currentColor"/>
</svg>

